<?xml version="1.0" encoding="utf-8"?>
<!-- Generator: Adobe Illustrator 17.0.1, SVG Export Plug-In . SVG Version: 6.00 Build 0)  -->
<!DOCTYPE svg PUBLIC "-//W3C//DTD SVG 1.1//EN" "http://www.w3.org/Graphics/SVG/1.1/DTD/svg11.dtd">
<svg version="1.1" id="Layer_1" xmlns="http://www.w3.org/2000/svg" xmlns:xlink="http://www.w3.org/1999/xlink" x="0px" y="0px"
	 width="28.35px" height="28.35px" viewBox="0 0 28.35 28.35" enable-background="new 0 0 28.35 28.35" xml:space="preserve">
<path fill="#222222" d="M188.323,2.835h26.46c0.522,0,0.945,0.424,0.945,0.945v1.89c0,0.522-0.423,0.945-0.945,0.945h-26.46
	c-0.522-0.001-0.945-0.423-0.945-0.945V3.78C187.378,3.258,187.801,2.835,188.323,2.835z"/>
<path fill="#222222" d="M188.323,12.285h26.46c0.522,0,0.945,0.423,0.945,0.945v1.89c0,0.521-0.423,0.945-0.945,0.945h-26.46
	c-0.522-0.001-0.945-0.424-0.945-0.946v-1.89C187.378,12.708,187.801,12.285,188.323,12.285z"/>
<path fill="#222222" d="M188.323,21.735h26.46c0.522,0,0.945,0.423,0.945,0.945v1.89c0,0.521-0.423,0.945-0.945,0.945h-26.46
	c-0.522-0.001-0.945-0.424-0.945-0.945v-1.89C187.378,22.158,187.801,21.735,188.323,21.735z"/>
</svg>
